<svg width="900" height="700" viewBox="0 0 900 700" fill="none" xmlns="http://www.w3.org/2000/svg">
<rect width="900" height="700" rx="36" fill="#F3F1F8"/>
<rect x="70" y="40" width="320" height="620" rx="40" fill="#111111"/>
<rect x="82" y="52" width="296" height="596" rx="32" fill="#F7F6FB"/>
<text x="104" y="115" fill="#111111" font-family="Arial, sans-serif" font-size="36" font-weight="800">Assistant</text>
<text x="104" y="148" fill="#667085" font-family="Arial, sans-serif" font-size="16">I organize billing risk, take the next</text>
<text x="104" y="170" fill="#667085" font-family="Arial, sans-serif" font-size="16">best action, and keep users ahead.</text>
<rect x="104" y="198" width="252" height="146" rx="30" fill="url(#assistantHero)"/>
<text x="126" y="238" fill="white" font-family="Arial, sans-serif" font-size="24" font-weight="800">Your assistant is ready</text>
<text x="126" y="270" fill="#F4E9FF" font-family="Arial, sans-serif" font-size="15">Renewals, price increases, and</text>
<text x="126" y="290" fill="#F4E9FF" font-family="Arial, sans-serif" font-size="15">trial endings organized to act fast.</text>
<circle cx="330" cy="234" r="24" fill="rgba(255,255,255,0.2)"/>
<text x="319" y="244" fill="white" font-family="Arial, sans-serif" font-size="26" font-weight="800">✦</text>
<rect x="124" y="302" width="64" height="52" rx="18" fill="rgba(255,255,255,0.16)"/>
<rect x="196" y="302" width="72" height="52" rx="18" fill="rgba(255,255,255,0.16)"/>
<rect x="276" y="302" width="68" height="52" rx="18" fill="rgba(255,255,255,0.16)"/>
<text x="145" y="331" fill="white" font-family="Arial, sans-serif" font-size="22" font-weight="800">9</text>
<text x="214" y="331" fill="white" font-family="Arial, sans-serif" font-size="22" font-weight="800">1</text>
<text x="296" y="331" fill="white" font-family="Arial, sans-serif" font-size="22" font-weight="800">1</text>
<text x="134" y="348" fill="#F4E9FF" font-family="Arial, sans-serif" font-size="10">tracked</text>
<text x="209" y="348" fill="#F4E9FF" font-family="Arial, sans-serif" font-size="10">canceled</text>
<text x="293" y="348" fill="#F4E9FF" font-family="Arial, sans-serif" font-size="10">sent</text>
<rect x="104" y="365" width="252" height="184" rx="26" fill="white"/>
<text x="126" y="402" fill="#111111" font-family="Arial, sans-serif" font-size="20" font-weight="800">What I Found</text>
<rect x="126" y="426" width="100" height="82" rx="18" fill="#F7F6FB"/>
<rect x="234" y="426" width="100" height="82" rx="18" fill="#F7F6FB"/>
<text x="145" y="455" fill="#6001D2" font-family="Arial, sans-serif" font-size="14" font-weight="800">Recurring</text>
<text x="145" y="484" fill="#111111" font-family="Arial, sans-serif" font-size="18" font-weight="800">9 active</text>
<text x="252" y="455" fill="#EF4444" font-family="Arial, sans-serif" font-size="14" font-weight="800">Priority</text>
<text x="252" y="484" fill="#111111" font-family="Arial, sans-serif" font-size="18" font-weight="800">Adobe</text>
<text x="126" y="532" fill="#5F6470" font-family="Arial, sans-serif" font-size="14" font-weight="700">Recommended next move</text>
<text x="126" y="556" fill="#111111" font-family="Arial, sans-serif" font-size="18" font-weight="800">Take action on your behalf</text>
<rect x="114" y="573" width="232" height="50" rx="25" fill="#171717"/>
<rect x="270" y="580" width="72" height="36" rx="18" fill="#3A3A3F"/>
<text x="141" y="605" fill="white" font-family="Arial, sans-serif" font-size="14" font-weight="700">Home</text>
<text x="216" y="605" fill="white" font-family="Arial, sans-serif" font-size="14" font-weight="700">Digest</text>
<text x="281" y="605" fill="white" font-family="Arial, sans-serif" font-size="14" font-weight="700">Assistant</text>
<text x="455" y="145" fill="#111111" font-family="Arial, sans-serif" font-size="40" font-weight="800">Assistant Overview</text>
<text x="455" y="188" fill="#4E5563" font-family="Arial, sans-serif" font-size="22">A brighter, more visual control surface for</text>
<text x="455" y="216" fill="#4E5563" font-family="Arial, sans-serif" font-size="22">what the assistant found and what it did.</text>
<rect x="455" y="280" width="360" height="152" rx="28" fill="white"/>
<circle cx="505" cy="331" r="28" fill="#22C55E"/>
<text x="492" y="342" fill="white" font-family="Arial, sans-serif" font-size="30" font-weight="800">✓</text>
<text x="550" y="322" fill="#111111" font-family="Arial, sans-serif" font-size="24" font-weight="800">Action completed</text>
<text x="550" y="352" fill="#5F6470" font-family="Arial, sans-serif" font-size="17">The assistant celebrates progress with a clearer</text>
<text x="550" y="376" fill="#5F6470" font-family="Arial, sans-serif" font-size="17">success state and updated summary metrics.</text>
<defs>
<linearGradient id="assistantHero" x1="104" y1="198" x2="356" y2="344" gradientUnits="userSpaceOnUse">
<stop stop-color="#6001D2"/>
<stop offset="1" stop-color="#A33BFF"/>
</linearGradient>
</defs>
</svg>
