<svg width="900" height="700" viewBox="0 0 900 700" fill="none" xmlns="http://www.w3.org/2000/svg">
<rect width="900" height="700" rx="36" fill="#F3F1F8"/>
<rect x="70" y="40" width="320" height="620" rx="40" fill="#111111"/>
<rect x="82" y="52" width="296" height="596" rx="32" fill="#F7F6FB"/>
<rect x="191" y="64" width="78" height="8" rx="4" fill="#D0CED8"/>
<circle cx="116" cy="112" r="22" fill="#59BEE8"/>
<text x="108" y="119" fill="white" font-family="Arial, sans-serif" font-size="22" font-weight="700">R</text>
<circle cx="344" cy="112" r="22" fill="#6001D2"/>
<text x="333" y="119" fill="white" font-family="Arial, sans-serif" font-size="20" font-weight="700">y+</text>
<text x="180" y="122" fill="#111111" font-family="Arial, sans-serif" font-size="34" font-weight="800">Home</text>
<rect x="98" y="154" width="264" height="214" rx="28" fill="url(#hero)"/>
<text x="120" y="194" fill="white" font-family="Arial, sans-serif" font-size="28" font-weight="800">Recurring Services</text>
<text x="120" y="225" fill="white" font-family="Arial, sans-serif" font-size="28" font-weight="800">Snapshot</text>
<text x="120" y="260" fill="#F4E9FF" font-family="Arial, sans-serif" font-size="16">9 recurring charges, 1 trial,</text>
<text x="120" y="282" fill="#F4E9FF" font-family="Arial, sans-serif" font-size="16">and 2 price increases surfaced.</text>
<rect x="120" y="304" width="66" height="62" rx="18" fill="rgba(255,255,255,0.18)"/>
<rect x="194" y="304" width="66" height="62" rx="18" fill="rgba(255,255,255,0.18)"/>
<rect x="268" y="304" width="66" height="62" rx="18" fill="rgba(255,255,255,0.18)"/>
<text x="144" y="333" fill="white" font-family="Arial, sans-serif" font-size="24" font-weight="800">9</text>
<text x="215" y="333" fill="white" font-family="Arial, sans-serif" font-size="24" font-weight="800">1</text>
<text x="289" y="333" fill="white" font-family="Arial, sans-serif" font-size="24" font-weight="800">2</text>
<text x="132" y="352" fill="#F4E9FF" font-family="Arial, sans-serif" font-size="11">tracked</text>
<text x="205" y="352" fill="#F4E9FF" font-family="Arial, sans-serif" font-size="11">trials</text>
<text x="281" y="352" fill="#F4E9FF" font-family="Arial, sans-serif" font-size="11">increases</text>
<rect x="98" y="384" width="264" height="170" rx="26" fill="white"/>
<text x="120" y="420" fill="#111111" font-family="Arial, sans-serif" font-size="18" font-weight="800">Needs Attention</text>
<circle cx="136" cy="468" r="21" fill="#F3E9FF"/>
<text x="129" y="475" fill="#6001D2" font-family="Arial, sans-serif" font-size="22" font-weight="800">D</text>
<text x="170" y="460" fill="#111111" font-family="Arial, sans-serif" font-size="20" font-weight="800">Dropbox</text>
<text x="255" y="460" fill="#EF4444" font-family="Arial, sans-serif" font-size="13" font-weight="800">INCREASE</text>
<text x="170" y="484" fill="#5F6470" font-family="Arial, sans-serif" font-size="15">Review the jump from $9.99</text>
<text x="170" y="504" fill="#5F6470" font-family="Arial, sans-serif" font-size="15">to the new monthly rate.</text>
<text x="276" y="492" fill="#EF4444" font-family="Arial, sans-serif" font-size="32" font-weight="800">$11.99</text>
<text x="289" y="515" fill="#8B90A0" font-family="Arial, sans-serif" font-size="12">was $9.99</text>
<rect x="114" y="573" width="232" height="50" rx="25" fill="#171717"/>
<rect x="198" y="580" width="66" height="36" rx="18" fill="#3A3A3F"/>
<text x="140" y="605" fill="white" font-family="Arial, sans-serif" font-size="14" font-weight="700">Home</text>
<text x="214" y="605" fill="white" font-family="Arial, sans-serif" font-size="14" font-weight="700">Digest</text>
<text x="289" y="605" fill="white" font-family="Arial, sans-serif" font-size="14" font-weight="700">Assistant</text>
<text x="455" y="145" fill="#111111" font-family="Arial, sans-serif" font-size="40" font-weight="800">Home Experience</text>
<text x="455" y="188" fill="#4E5563" font-family="Arial, sans-serif" font-size="22">A Yahoo-inspired summary card that surfaces</text>
<text x="455" y="216" fill="#4E5563" font-family="Arial, sans-serif" font-size="22">recurring charges, trials, and price increases.</text>
<rect x="455" y="270" width="360" height="126" rx="28" fill="white"/>
<text x="485" y="313" fill="#6001D2" font-family="Arial, sans-serif" font-size="18" font-weight="800">Assistant Recommendation</text>
<text x="485" y="345" fill="#111111" font-family="Arial, sans-serif" font-size="24" font-weight="800">Act now before the next charge lands.</text>
<text x="485" y="375" fill="#5F6470" font-family="Arial, sans-serif" font-size="17">The assistant prioritizes the next best billing action.</text>
<defs>
<linearGradient id="hero" x1="98" y1="154" x2="362" y2="368" gradientUnits="userSpaceOnUse">
<stop stop-color="#6001D2"/>
<stop offset="1" stop-color="#9B36FF"/>
</linearGradient>
</defs>
</svg>
